<svg xmlns="http://www.w3.org/2000/svg" viewBox="0 0 100 240"
     role="img" aria-label="Primeiro pré-molar superior"
     data-tipo="permanente-superior" data-posicao="4" data-arcada="superior">
  <title>Primeiro pré-molar superior — faces: mesial, distal, vestibular, lingual, oclusal</title>
  <g class="od-dente">
    <g class="od-regiao-raiz">
      <path id="raiz-1" data-regiao="raiz" data-indice="1" class="od-raiz" d="M 34.00 118.00 C 32.13 76.00, 35.63 52.00, 38.13 16.00 C 43.63 52.00, 47.13 76.00, 49.00 118.00 Z" />
      <path id="raiz-2" data-regiao="raiz" data-indice="2" class="od-raiz" d="M 51.00 118.00 C 52.87 76.00, 56.37 52.00, 61.87 16.00 C 64.37 52.00, 67.87 76.00, 66.00 118.00 Z" />
    </g>
    <g class="od-regiao-coroa">
      <path id="coroa" data-regiao="coroa" class="od-coroa" d="M 34.00 112.00 L 37.00 166.00 Q 50.00 174.00 63.00 166.00 L 66.00 112.00 Z" />
    </g>
    <g class="od-regiao-faces">
      <path id="face-distal" data-face="distal" class="od-face" d="M 30.91 225.09 A 27 27 0 0 1 30.91 186.91 L 41.60 197.60 A 11.88 11.88 0 0 0 41.60 214.40 Z" />
      <path id="face-vestibular" data-face="vestibular" class="od-face" d="M 30.91 186.91 A 27 27 0 0 1 69.09 186.91 L 58.40 197.60 A 11.88 11.88 0 0 0 41.60 197.60 Z" />
      <path id="face-mesial" data-face="mesial" class="od-face" d="M 69.09 186.91 A 27 27 0 0 1 69.09 225.09 L 58.40 214.40 A 11.88 11.88 0 0 0 58.40 197.60 Z" />
      <path id="face-lingual" data-face="lingual" class="od-face" d="M 69.09 225.09 A 27 27 0 0 1 30.91 225.09 L 41.60 214.40 A 11.88 11.88 0 0 0 58.40 214.40 Z" />
      <circle id="face-oclusal" data-face="oclusal" class="od-face" cx="50.00" cy="206.00" r="11.88" />
    </g>
  </g>
</svg>
